#!OML:ASF F:\VICON\USERDATA\INSTALL\rory3\rory3.ASF
:FULLY-SPECIFIED
:DEGREES
220
root -2.37559 16.4522 36.6396 27.3024 9.63072 6.3243
lowerback -19.568 -1.09495 -0.00794606
upperback -11.9601 -1.34077 -0.800211
thorax -1.98553 -0.676516 -1.07508
lowerneck -9.7679 -5.97717 -8.05761
upperneck 20.6987 -7.34712 2.40164
head 8.44506 -3.87284 1.37241
rclavicle 3.60794e-014 1.27222e-014
rhumerus -46.8634 0.276203 -2.24497
rradius 26.0456
rwrist -8.30527
rhand -19.7082 -52.4532
rfingers 7.12502
rthumb 6.62155 277.67
lclavicle 3.60794e-014 1.27222e-014
lhumerus -73.1429 -10.3576 -0.331933
lradius 19.1954
lwrist 23.1146
lhand -42.7583 -22.2623
lfingers 7.12502
lthumb -15.6255 7.12661
rfemur -60.9931 -9.4562 25.7811
rtibia 54.6331
rfoot -19.3692 -14.7259
rtoes 21.4166
lfemur 7.79459 25.7205 1.89196
ltibia 98.985
lfoot -10.4835 -1.56855
ltoes -5.86549
221
root -2.3895 16.1979 36.9565 27.4301 8.66886 4.85061
lowerback -18.1352 -0.389973 1.137
upperback -12.3185 -0.593073 -0.638241
thorax -3.10477 -0.367058 -1.40494
lowerneck -9.60551 -5.98081 -8.07666
upperneck 19.833 -7.46063 2.95833
head 8.15081 -3.87041 1.56021
rclavicle -1.47598e-014 5.1684e-015
rhumerus -47.8376 -1.8604 -3.00537
rradius 25.8843
rwrist -8.58875
rhand -21.493 -55.2226
rfingers 7.12502
rthumb 4.8983 274.854
lclavicle -1.47598e-014 5.1684e-015
lhumerus -75.1381 -9.27517 1.79425
lradius 19.4854
lwrist 27.4301
lhand -44.1224 -22.6249
lfingers 7.12502
lthumb -16.939 6.6564
rfemur -61.6786 -7.81897 27.1608
rtibia 57.5548
rfoot -24.6291 -14.3164
rtoes 25.0213
lfemur 5.06729 25.5677 0.926819
ltibia 100.196
lfoot -11.1648 -1.48334
ltoes -6.9042
222
root -2.45759 15.9347 37.258 28.487 6.30401 3.49749
lowerback -18.0569 0.418224 0.82861
upperback -12.5643 0.505232 -0.338767
thorax -3.38407 0.216287 -0.752567
lowerneck -9.96508 -6.07542 -7.91798
upperneck 19.0094 -7.61487 3.19139
head 7.95095 -3.90035 1.59076
rclavicle -5.96354e-015 1.19271e-015
rhumerus -48.4596 -4.51426 -3.89746
rradius 25.6272
rwrist -8.51614
rhand -22.287 -56.926
rfingers 7.12502
rthumb 4.13162 273.134
lclavicle -5.96354e-015 1.19271e-015
lhumerus -77.0835 -7.49107 4.22169
lradius 19.8798
lwrist 30.9961
lhand -44.8383 -23.6247
lfingers 7.12502
lthumb -17.6281 5.59614
rfemur -63.3193 -4.28698 27.7997
rtibia 60.1769
rfoot -26.5212 -15.1813
rtoes 27.0319
lfemur 1.19188 26.6334 -0.65424
ltibia 101.966
lfoot -11.9651 -1.95736
ltoes -7.67413
223
root -2.46008 15.682 37.4834 28.4707 5.89258 0.400509
lowerback -16.6577 1.32257 3.78858
upperback -12.6141 1.35438 0.292384
thorax -4.12176 0.46867 -1.64757
lowerneck -9.93515 -6.09031 -7.27895
upperneck 17.7564 -7.65864 2.90632
head 7.4946 -3.89766 1.40349
rclavicle 2.35063e-014 2.10712e-014
rhumerus -48.3958 -9.99366 -3.01803
rradius 23.7522
rwrist -4.58515
rhand -22.1463 -56.223
rfingers 7.12502
rthumb 4.26751 273.84
lclavicle 2.35063e-014 2.10712e-014
lhumerus -78.7289 -4.99164 5.48921
lradius 19.9319
lwrist 32.1651
lhand -45.0611 -26.6963
lfingers 7.12502
lthumb -17.8424 2.50518
rfemur -63.5739 -1.99187 30.8351
rtibia 62.3738
rfoot -28.0288 -16.2972
rtoes 24.6501
lfemur -2.02219 26.2527 0.778042
ltibia 104.137
lfoot -13.4916 -2.40277
ltoes -9.45471
224
root -2.4625 15.4071 37.6717 27.6346 5.67373 -2.71774
lowerback -14.5882 2.27816 6.72962
upperback -12.0437 2.41566 1.00916
thorax -4.49002 0.837155 -2.4476
lowerneck -10.719 -6.37426 -7.30541
upperneck 16.5309 -7.9487 2.90784
head 7.24907 -4.02146 1.36634
rclavicle -8.15017e-015 -1.74931e-014
rhumerus -49.9609 -6.28702 -9.38999
rradius 27.787
rwrist -12.6668
rhand -22.4338 -59.6446
rfingers 7.12502
rthumb 3.98982 270.413
lclavicle -8.15017e-015 -1.74931e-014
lhumerus -79.5738 -1.31388 7.04243
lradius 19.8544
lwrist 31.2206
lhand -45.4574 -25.9215
lfingers 7.12502
lthumb -18.2237 3.24487
rfemur -62.8965 0.365992 33.7823
rtibia 64.3789
rfoot -28.8852 -18.4501
rtoes 20.4416
lfemur -4.31146 25.1015 2.82536
ltibia 106.256
lfoot -15.1168 -2.58158
ltoes -11.6297
225
root -2.46288 15.1724 37.8749 27.0208 5.29649 -5.38146
lowerback -13.0821 3.08427 9.03198
upperback -11.2573 3.38095 1.68139
thorax -4.31378 1.2242 -2.9504
lowerneck -11.4908 -6.55872 -7.3414
upperneck 15.1184 -8.1156 3.02873
head 6.94028 -4.07651 1.38571
rclavicle 6.60959e-015 1.51076e-014
rhumerus -49.7056 -11.0081 -9.8035
rradius 26.8221
rwrist -10.3976
rhand -21.838 -59.9005
rfingers 7.12502
rthumb 4.56519 270.169
lclavicle 6.60959e-015 1.51076e-014
lhumerus -80.201 2.6697 9.15964
lradius 19.955
lwrist 30.6755
lhand -45.2202 -24.7855
lfingers 7.12502
lthumb -17.9955 4.402
rfemur -62.0789 2.39499 36.3547
rtibia 65.9275
rfoot -29.2561 -20.6624
rtoes 15.4117
lfemur -7.60867 24.0105 4.20765
ltibia 108.773
lfoot -16.531 -2.43324
ltoes -13.1046
226
root -2.4621 14.9874 38.1043 26.5725 5.18247 -7.85848
lowerback -12.0321 3.75296 11.1241
upperback -10.4676 4.17594 2.40315
thorax -3.89714 1.56423 -3.28477
lowerneck -12.1666 -6.80083 -7.69897
upperneck 13.8214 -8.35013 3.39923
head 6.68266 -4.16289 1.52965
rclavicle 3.82583e-015 -7.15625e-015
rhumerus -49.2152 -15.1306 -10.7419
rradius 26.0888
rwrist -8.46338
rhand -21.5604 -59.0315
rfingers 7.12502
rthumb 4.83327 271.044
lclavicle 3.82583e-015 -7.15625e-015
lhumerus -80.4793 6.36719 12.4012
lradius 20.0615
lwrist 30.6792
lhand -44.562 -25.8461
lfingers 7.12502
lthumb -17.3622 3.39844
rfemur -60.9989 3.94175 38.9147
rtibia 66.9686
rfoot -25.7772 -27.2922
rtoes 17.3931
lfemur -11.5271 22.3417 5.19402
ltibia 110.915
lfoot -17.6333 -2.55089
ltoes -11.568
227
root -2.45695 14.8462 38.3566 26.3596 5.63708 -10.1445
lowerback -10.6778 4.2077 13.2731
upperback -10.4672 4.85552 3.00752
thorax -4.51177 1.76706 -3.82104
lowerneck -13.292 -7.27455 -7.3063
upperneck 14.2574 -8.84428 2.52033
head 6.98469 -4.4393 1.08995
rclavicle 2.70347e-014 1.82882e-014
rhumerus -48.7671 -16.3969 -13.2457
rradius 25.9581
rwrist -8.45755
rhand -21.1979 -58.1729
rfingers 7.12502
rthumb 5.18325 271.91
lclavicle 2.70347e-014 1.82882e-014
lhumerus -80.3005 8.46696 17.0239
lradius 20.4709
lwrist 31.8308
lhand -41.9162 -25.1758
lfingers 7.12502
lthumb -14.8144 4.2747
rfemur -59.8464 4.4671 41.6483
rtibia 67.4236
rfoot -29.6632 -24.8303
rtoes 7.03501
lfemur -16.364 20.1355 5.94277
ltibia 112.814
lfoot -18.3169 -2.42946
ltoes -10.2242
228
root -2.50175 14.7535 38.6444 26.1018 5.85519 -10.911
lowerback -10.2446 4.28907 13.021
upperback -10.0497 5.02676 3.44241
thorax -4.30552 1.91179 -3.2259
lowerneck -12.5023 -7.39436 -7.67551
upperneck 12.5877 -9.08742 3.33301
head 6.38068 -4.51255 1.43244
rclavicle 3.02401e-014 -3.97569e-015
rhumerus -47.4691 -18.8696 -15.6248
rradius 24.9897
rwrist -7.3119
rhand -21.0799 -57.0763
rfingers 7.12502
rthumb 5.29716 273.01
lclavicle 3.02401e-014 -3.97569e-015
lhumerus -79.3074 10.5899 23.2496
lradius 21.4412
lwrist 35.6707
lhand -39.4038 -24.4983
lfingers 7.12502
lthumb -12.393 5.11434
rfemur -58.5321 4.43379 42.9348
rtibia 67.619
rfoot -28.557 -27.2748
rtoes 6.19397
lfemur -21.4348 17.6021 5.30364
ltibia 114.17
lfoot -18.1906 -2.06452
ltoes -9.4633
229
root -2.49264 14.7264 38.9221 24.682 7.60468 -12.1151
lowerback -8.96894 4.0446 14.8659
upperback -9.15384 4.74037 3.87644
thorax -4.02601 1.72809 -3.83912
lowerneck -12.0381 -7.39168 -7.70678
upperneck 10.9808 -9.13955 3.81923
head 5.8191 -4.50455 1.62607
rclavicle 1.4064e-014 3.18055e-015
rhumerus -46.4605 -15.3597 -22.9947
rradius 29.1068
rwrist -13.3999
rhand -22.4486 -58.585
rfingers 7.12502
rthumb 3.97556 271.472
lclavicle 1.4064e-014 3.18055e-015
lhumerus -77.642 13.233 28.4307
lradius 22.0753
lwrist 36.5672
lhand -37.0356 -23.6242
lfingers 7.12502
lthumb -10.1089 6.11299
rfemur -55.9145 1.89543 45.2653
rtibia 67.3533
rfoot -28.4712 -28.3224
rtoes 3.49823
lfemur -25.6468 13.2314 5.48821
ltibia 114.902
lfoot -18.0412 -1.13949
ltoes -9.73121
230
root -2.53899 14.6629 39.2036 23.9355 8.11774 -11.6715
lowerback -7.70975 3.74148 13.8573
upperback -9.02964 4.62351 3.86215
thorax -4.63993 1.69182 -3.40156
lowerneck -11.9943 -7.71994 -7.55727
upperneck 11.0533 -9.62869 3.90536
head 5.85956 -4.73012 1.58075
rclavicle 4.02042e-014 7.15625e-015
rhumerus -44.3593 -16.3164 -26.3066
rradius 27.7993
rwrist -11.3281
rhand -21.8464 -56.5137
rfingers 7.12502
rthumb 4.55704 273.555
lclavicle 4.02042e-014 7.15625e-015
lhumerus -75.8186 14.1259 34.2347
lradius 23.1533
lwrist 38.67
lhand -35.7502 -25.0975
lfingers 7.12502
lthumb -8.86876 4.69611
rfemur -54.1859 0.882096 45.3422
rtibia 67.2609
rfoot -29.0743 -29.0741
rtoes 1.80603
lfemur -30.2926 9.76924 3.99971
ltibia 115.541
lfoot -17.8111 0.516542
ltoes -12.1971
231
root -2.59246 14.6134 39.4903 23.0018 8.90026 -11.7056
lowerback -6.80236 3.42265 13.2911
upperback -8.67329 4.35742 4.04721
thorax -4.82805 1.59857 -2.96564
lowerneck -10.1922 -7.59307 -8.18045
upperneck 9.48674 -9.64083 5.40092
head 5.17642 -4.69006 2.22849
rclavicle 8.49804e-015 -2.06736e-014
rhumerus -41.949 -17.1005 -30.0373
rradius 27.011
rwrist -9.62312
rhand -23.8437 -50.6908
rfingers 7.12502
rthumb 2.62834 279.346
lclavicle 8.49804e-015 -2.06736e-014
lhumerus -73.668 14.62 40.5969
lradius 24.746
lwrist 39.1788
lhand -34.434 -26.6406
lfingers 7.12502
lthumb -7.59844 3.20292
rfemur -52.0417 0.0141339 45.8868
rtibia 66.8433
rfoot -30.3662 -29.4544
rtoes -0.377878
lfemur -34.639 6.59561 3.73481
ltibia 115.904
lfoot -18.0705 1.14261
ltoes -9.63216
232
root -2.56784 14.5795 39.7475 21.4976 11.2073 -13.2516
lowerback -4.13334 3.09634 16.3967
upperback -9.25381 4.49752 4.02202
thorax -6.89163 1.31768 -4.80455
lowerneck -10.785 -8.27122 -7.74045
upperneck 11.5114 -10.5719 4.70265
head 5.91081 -5.15819 1.79829
rclavicle -1.23992e-014 -6.44062e-014
rhumerus -41.1487 -16.4288 -33.7081
rradius 27.403
rwrist -8.1995
rhand -20.3216 -54.9807
rfingers 7.12502
rthumb 6.02929 275.125
lclavicle -1.23992e-014 -6.44062e-014
lhumerus -72.0431 12.5901 47.6266
lradius 28.345
lwrist 41.017
lhand -34.4601 -26.3641
lfingers 7.12502
lthumb -7.62363 3.47846
rfemur -49.436 -2.72715 48.2266
rtibia 66.1652
rfoot -32.7087 -28.6426
rtoes -5.36959
lfemur -38.7081 2.1679 5.2367
ltibia 116.166
lfoot -18.5011 2.45119
ltoes -14.7862
233
root -2.58734 14.5553 40.0497 21.1882 12.212 -13.5976
lowerback -4.68049 2.99808 16.6646
upperback -8.63753 4.17093 4.24992
thorax -5.9546 1.24586 -4.67128
lowerneck -8.63553 -8.03944 -8.69505
upperneck 8.81256 -10.4116 6.58201
head 4.85427 -5.04674 2.66711
rclavicle 1.34677e-014 1.27222e-014
rhumerus -38.0397 -17.1235 -37.6899
rradius 28.0243
rwrist -5.54722
rhand -17.5617 -61.1937
rfingers 7.12502
rthumb 8.69328 450.995
lclavicle 1.34677e-014 1.27222e-014
lhumerus -69.8011 12.9681 52.7363
lradius 31.267
lwrist 40.0011
lhand -31.5279 -28.8024
lfingers 7.12502
lthumb -4.79288 1.12343
rfemur -47.6125 -3.70017 48.9125
rtibia 65.3972
rfoot -33.6495 -28.8722
rtoes -6.53081
lfemur -43.2363 -0.562334 5.53218
ltibia 116.022
lfoot -18.1449 3.18723
ltoes -12.9984
234
root -2.64304 14.5369 40.4001 21.5078 12.3728 -13.209
lowerback -5.65788 3.10404 15.4316
upperback -8.45809 4.09538 4.2399
thorax -5.23424 1.34128 -3.97626
lowerneck -9.66344 -8.65849 -8.82387
upperneck 9.90742 -11.18 6.41094
head 5.42096 -5.40979 2.50155
rclavicle -2.39039e-014 -3.26007e-014
rhumerus -35.3552 -16.7497 -41.9065
rradius 28.2019
rwrist -4.33594
rhand -19.7183 -59.3367
rfingers 7.12502
rthumb 6.61181 630.786
lclavicle -2.39039e-014 -3.26007e-014
lhumerus -67.9469 12.701 56.4095
lradius 33.4002
lwrist 38.4411
lhand -20.8294 -44.2536
lfingers 7.12502
lthumb 5.53911 -14.346
rfemur -46.0216 -3.31705 48.6279
rtibia 64.5318
rfoot -34.5212 -29.2231
rtoes -7.40542
lfemur -47.6186 -2.08308 5.25676
ltibia 115.456
lfoot -18.9974 3.99715
ltoes -12.1638
